<svg width="84" height="111" viewBox="0 0 84 111" fill="none" xmlns="http://www.w3.org/2000/svg">
<circle cx="2" cy="2.203" r="2" fill="#623AF7"/>
<circle cx="22" cy="2.203" r="2" fill="#623AF7"/>
<circle cx="42" cy="2.203" r="2" fill="#623AF7"/>
<circle cx="62" cy="2.203" r="2" fill="#623AF7"/>
<circle cx="82" cy="2.203" r="2" fill="#623AF7"/>
<circle cx="2" cy="28.7347" r="2" fill="#623AF7"/>
<circle cx="22" cy="28.7347" r="2" fill="#623AF7"/>
<circle cx="42" cy="28.7347" r="2" fill="#623AF7"/>
<circle cx="62" cy="28.7347" r="2" fill="#623AF7"/>
<circle cx="82" cy="28.7347" r="2" fill="#623AF7"/>
<circle cx="2" cy="55.2664" r="2" fill="#623AF7"/>
<circle cx="22" cy="55.2664" r="2" fill="#623AF7"/>
<circle cx="42" cy="55.2664" r="2" fill="#623AF7"/>
<circle cx="62" cy="55.2664" r="2" fill="#623AF7"/>
<circle cx="82" cy="55.2664" r="2" fill="#623AF7"/>
<circle cx="2" cy="81.798" r="2" fill="#623AF7"/>
<circle cx="22" cy="81.798" r="2" fill="#623AF7"/>
<circle cx="42" cy="81.798" r="2" fill="#623AF7"/>
<circle cx="62" cy="81.798" r="2" fill="#623AF7"/>
<circle cx="82" cy="81.798" r="2" fill="#623AF7"/>
<circle cx="2" cy="108.33" r="2" fill="#623AF7"/>
<circle cx="22" cy="108.33" r="2" fill="#623AF7"/>
<circle cx="42" cy="108.33" r="2" fill="#623AF7"/>
<circle cx="62" cy="108.33" r="2" fill="#623AF7"/>
<circle cx="82" cy="108.33" r="2" fill="#623AF7"/>
</svg>
