<svg width="156" height="18" viewBox="0 0 156 18" fill="none" xmlns="http://www.w3.org/2000/svg">
<g clip-path="url(#clip0_550_1541)">
<path d="M16 0H0V12.8489H5.13869V16H8.36983V12.8489H11.562V10.0038H8.36983V6.94455H10.472L12.7299 4.03824H5.13869V10.0038H3.11436V2.84512H13.7421L16 0Z" fill="white"/>
<path d="M98 16V0H85.1511V5.13869H82V8.36983H85.1511V11.562H87.9962V8.36983H91.0554V10.472L93.9618 12.7299V5.13869H87.9962V3.11436H95.1549V13.7421L98 16Z" fill="white"/>
<path d="M15.312 11.488C15.3707 11.952 15.4907 12.328 15.672 12.616C15.8587 12.8987 16.096 13.1067 16.384 13.24C16.672 13.368 16.9947 13.432 17.352 13.432C17.7413 13.432 18.1173 13.368 18.48 13.24C18.8427 13.112 19.192 12.9413 19.528 12.728L20.544 14.104C20.144 14.4453 19.6587 14.7253 19.088 14.944C18.5227 15.1627 17.8773 15.272 17.152 15.272C16.1813 15.272 15.368 15.08 14.712 14.696C14.056 14.3067 13.5627 13.7733 13.232 13.096C12.9013 12.4187 12.736 11.64 12.736 10.76C12.736 9.92267 12.896 9.16267 13.216 8.48C13.536 7.792 14.0027 7.24533 14.616 6.84C15.2347 6.42933 15.9893 6.224 16.88 6.224C17.6907 6.224 18.392 6.39733 18.984 6.744C19.5813 7.09067 20.0427 7.58933 20.368 8.24C20.6987 8.89067 20.864 9.672 20.864 10.584C20.864 10.728 20.8587 10.8827 20.848 11.048C20.8427 11.2133 20.832 11.36 20.816 11.488H15.312ZM16.88 7.92C16.4267 7.92 16.0613 8.08267 15.784 8.408C15.5067 8.73333 15.3387 9.25333 15.28 9.968H18.4C18.3947 9.34933 18.2747 8.85333 18.04 8.48C17.8053 8.10667 17.4187 7.92 16.88 7.92ZM22.7938 15V13.304H23.9138V8.184H22.7938V6.504H25.8418L26.3058 8.416C26.6098 7.68533 26.9964 7.14133 27.4658 6.784C27.9404 6.42667 28.5191 6.248 29.2018 6.248C29.4898 6.248 29.7458 6.272 29.9698 6.32C30.1938 6.36267 30.4044 6.424 30.6018 6.504L29.8338 8.592C29.6791 8.54933 29.5244 8.51733 29.3698 8.496C29.2151 8.47467 29.0444 8.464 28.8578 8.464C28.3031 8.464 27.8151 8.69067 27.3938 9.144C26.9778 9.59733 26.6604 10.1733 26.4418 10.872V13.304H28.1218V15H22.7938ZM28.5458 10.056V7.576L28.9218 6.504H30.6018L30.1298 10.056H28.5458ZM32.3075 15V6.504H34.5155L34.6915 7.488C35.0702 7.06133 35.4702 6.744 35.8915 6.536C36.3128 6.328 36.7928 6.224 37.3315 6.224C38.0568 6.224 38.6275 6.44533 39.0435 6.888C39.4595 7.33067 39.6675 7.95467 39.6675 8.76V15H37.1395V9.488C37.1395 9.14133 37.1155 8.86667 37.0675 8.664C37.0195 8.456 36.9342 8.30933 36.8115 8.224C36.6942 8.13333 36.5315 8.088 36.3235 8.088C36.1475 8.088 35.9742 8.128 35.8035 8.208C35.6382 8.28267 35.4755 8.392 35.3155 8.536C35.1555 8.68 34.9955 8.85333 34.8355 9.056V15H32.3075ZM49.0533 12.552C49.0533 12.872 49.0959 13.104 49.1813 13.248C49.2719 13.392 49.4159 13.5013 49.6133 13.576L49.0933 15.24C48.5919 15.192 48.1679 15.0827 47.8213 14.912C47.4799 14.736 47.2106 14.472 47.0133 14.12C46.6879 14.5093 46.2719 14.8 45.7653 14.992C45.2586 15.1787 44.7413 15.272 44.2133 15.272C43.3386 15.272 42.6399 15.024 42.1173 14.528C41.5999 14.0267 41.3413 13.384 41.3413 12.6C41.3413 11.6773 41.7013 10.9653 42.4213 10.464C43.1466 9.96267 44.1653 9.712 45.4773 9.712H46.6213V9.392C46.6213 8.94933 46.4773 8.62133 46.1893 8.408C45.9066 8.19467 45.4906 8.088 44.9413 8.088C44.6693 8.088 44.3199 8.128 43.8933 8.208C43.4666 8.28267 43.0399 8.392 42.6133 8.536L42.0293 6.856C42.5786 6.648 43.1493 6.49067 43.7413 6.384C44.3386 6.27733 44.8719 6.224 45.3413 6.224C46.6053 6.224 47.5386 6.48267 48.1413 7C48.7493 7.512 49.0533 8.25333 49.0533 9.224V12.552ZM45.0853 13.464C45.3573 13.464 45.6426 13.384 45.9413 13.224C46.2399 13.0587 46.4666 12.8267 46.6213 12.528V11.152H45.9973C45.2933 11.152 44.7759 11.2613 44.4453 11.48C44.1146 11.6933 43.9493 12.008 43.9493 12.424C43.9493 12.7493 44.0479 13.0053 44.2453 13.192C44.4479 13.3733 44.7279 13.464 45.0853 13.464ZM51.495 15V6.504H53.703L53.879 7.488C54.2577 7.06133 54.6577 6.744 55.079 6.536C55.5003 6.328 55.9803 6.224 56.519 6.224C57.2443 6.224 57.815 6.44533 58.231 6.888C58.647 7.33067 58.855 7.95467 58.855 8.76V15H56.327V9.488C56.327 9.14133 56.303 8.86667 56.255 8.664C56.207 8.456 56.1217 8.30933 55.999 8.224C55.8817 8.13333 55.719 8.088 55.511 8.088C55.335 8.088 55.1617 8.128 54.991 8.208C54.8257 8.28267 54.663 8.392 54.503 8.536C54.343 8.68 54.183 8.85333 54.023 9.056V15H51.495ZM65.9208 2.864L68.4488 3.128V15H66.2088L66.0808 14.064C65.8461 14.3947 65.5341 14.68 65.1448 14.92C64.7554 15.1547 64.2834 15.272 63.7288 15.272C63.0248 15.272 62.4408 15.0827 61.9768 14.704C61.5181 14.3253 61.1741 13.7973 60.9448 13.12C60.7208 12.4373 60.6088 11.64 60.6088 10.728C60.6088 9.85333 60.7448 9.07733 61.0168 8.4C61.2888 7.72267 61.6781 7.192 62.1848 6.808C62.6914 6.41867 63.2941 6.224 63.9928 6.224C64.3714 6.224 64.7234 6.29067 65.0488 6.424C65.3741 6.55733 65.6648 6.752 65.9208 7.008V2.864ZM64.6727 8.072C64.2354 8.072 63.8834 8.28 63.6168 8.696C63.3501 9.10667 63.2168 9.78933 63.2168 10.744C63.2168 11.4427 63.2728 11.9867 63.3848 12.376C63.4968 12.76 63.6514 13.0293 63.8488 13.184C64.0461 13.3387 64.2728 13.416 64.5288 13.416C64.8114 13.416 65.0674 13.328 65.2968 13.152C65.5314 12.976 65.7394 12.736 65.9208 12.432V8.768C65.7448 8.54933 65.5581 8.37867 65.3608 8.256C65.1634 8.13333 64.9341 8.072 64.6727 8.072ZM74.3625 6.224C75.2372 6.224 75.9812 6.41067 76.5945 6.784C77.2078 7.15733 77.6772 7.68267 78.0025 8.36C78.3278 9.032 78.4905 9.82133 78.4905 10.728C78.4905 11.672 78.3252 12.4853 77.9945 13.168C77.6692 13.8453 77.1998 14.3653 76.5865 14.728C75.9732 15.0907 75.2318 15.272 74.3625 15.272C73.4985 15.272 72.7572 15.0933 72.1385 14.736C71.5252 14.3787 71.0532 13.8613 70.7225 13.184C70.3972 12.5067 70.2345 11.6933 70.2345 10.744C70.2345 9.84267 70.3972 9.05333 70.7225 8.376C71.0532 7.69867 71.5252 7.17067 72.1385 6.792C72.7572 6.41333 73.4985 6.224 74.3625 6.224ZM74.3625 8.088C73.8452 8.088 73.4612 8.30133 73.2105 8.728C72.9652 9.14933 72.8425 9.82133 72.8425 10.744C72.8425 11.6827 72.9652 12.3627 73.2105 12.784C73.4612 13.2053 73.8452 13.416 74.3625 13.416C74.8798 13.416 75.2612 13.2053 75.5065 12.784C75.7572 12.3627 75.8825 11.6773 75.8825 10.728C75.8825 9.81067 75.7572 9.14133 75.5065 8.72C75.2612 8.29867 74.8798 8.088 74.3625 8.088ZM103.144 6.224C104.018 6.224 104.762 6.41067 105.376 6.784C105.989 7.15733 106.458 7.68267 106.784 8.36C107.109 9.032 107.272 9.82133 107.272 10.728C107.272 11.672 107.106 12.4853 106.776 13.168C106.45 13.8453 105.981 14.3653 105.368 14.728C104.754 15.0907 104.013 15.272 103.144 15.272C102.28 15.272 101.538 15.0933 100.92 14.736C100.306 14.3787 99.8344 13.8613 99.5038 13.184C99.1784 12.5067 99.0158 11.6933 99.0158 10.744C99.0158 9.84267 99.1784 9.05333 99.5038 8.376C99.8344 7.69867 100.306 7.17067 100.92 6.792C101.538 6.41333 102.28 6.224 103.144 6.224ZM103.144 8.088C102.626 8.088 102.242 8.30133 101.992 8.728C101.746 9.14933 101.624 9.82133 101.624 10.744C101.624 11.6827 101.746 12.3627 101.992 12.784C102.242 13.2053 102.626 13.416 103.144 13.416C103.661 13.416 104.042 13.2053 104.288 12.784C104.538 12.3627 104.664 11.6773 104.664 10.728C104.664 9.81067 104.538 9.14133 104.288 8.72C104.042 8.29867 103.661 8.088 103.144 8.088ZM109.138 15V13.304H110.258V8.184H109.138V6.504H112.186L112.65 8.416C112.954 7.68533 113.34 7.14133 113.81 6.784C114.284 6.42667 114.863 6.248 115.546 6.248C115.834 6.248 116.09 6.272 116.314 6.32C116.538 6.36267 116.748 6.424 116.946 6.504L116.178 8.592C116.023 8.54933 115.868 8.51733 115.714 8.496C115.559 8.47467 115.388 8.464 115.202 8.464C114.647 8.464 114.159 8.69067 113.738 9.144C113.322 9.59733 113.004 10.1733 112.786 10.872V13.304H114.466V15H109.138ZM114.89 10.056V7.576L115.266 6.504H116.946L116.474 10.056H114.89ZM120.843 11.488C120.902 11.952 121.022 12.328 121.203 12.616C121.39 12.8987 121.627 13.1067 121.915 13.24C122.203 13.368 122.526 13.432 122.883 13.432C123.273 13.432 123.649 13.368 124.011 13.24C124.374 13.112 124.723 12.9413 125.059 12.728L126.075 14.104C125.675 14.4453 125.19 14.7253 124.619 14.944C124.054 15.1627 123.409 15.272 122.683 15.272C121.713 15.272 120.899 15.08 120.243 14.696C119.587 14.3067 119.094 13.7733 118.763 13.096C118.433 12.4187 118.267 11.64 118.267 10.76C118.267 9.92267 118.427 9.16267 118.747 8.48C119.067 7.792 119.534 7.24533 120.147 6.84C120.766 6.42933 121.521 6.224 122.411 6.224C123.222 6.224 123.923 6.39733 124.515 6.744C125.113 7.09067 125.574 7.58933 125.899 8.24C126.23 8.89067 126.395 9.672 126.395 10.584C126.395 10.728 126.39 10.8827 126.379 11.048C126.374 11.2133 126.363 11.36 126.347 11.488H120.843ZM122.411 7.92C121.958 7.92 121.593 8.08267 121.315 8.408C121.038 8.73333 120.87 9.25333 120.811 9.968H123.931C123.926 9.34933 123.806 8.85333 123.571 8.48C123.337 8.10667 122.95 7.92 122.411 7.92ZM133.437 6.504V13.272H135.597V15H128.501V13.272H130.909V8.232H128.581V6.504H133.437ZM131.909 2.056C132.346 2.056 132.704 2.192 132.981 2.464C133.258 2.736 133.397 3.07467 133.397 3.48C133.397 3.88533 133.258 4.22667 132.981 4.504C132.704 4.776 132.346 4.912 131.909 4.912C131.466 4.912 131.104 4.776 130.821 4.504C130.544 4.22667 130.405 3.88533 130.405 3.48C130.405 3.07467 130.544 2.736 130.821 2.464C131.104 2.192 131.466 2.056 131.909 2.056ZM137.919 15V13.304H139.039V8.184H137.919V6.504H140.967L141.431 8.416C141.735 7.68533 142.121 7.14133 142.591 6.784C143.065 6.42667 143.644 6.248 144.327 6.248C144.615 6.248 144.871 6.272 145.095 6.32C145.319 6.36267 145.529 6.424 145.727 6.504L144.959 8.592C144.804 8.54933 144.649 8.51733 144.495 8.496C144.34 8.47467 144.169 8.464 143.983 8.464C143.428 8.464 142.94 8.69067 142.519 9.144C142.103 9.59733 141.785 10.1733 141.567 10.872V13.304H143.247V15H137.919ZM143.671 10.056V7.576L144.047 6.504H145.727L145.255 10.056H143.671ZM154.585 12.552C154.585 12.872 154.627 13.104 154.713 13.248C154.803 13.392 154.947 13.5013 155.145 13.576L154.625 15.24C154.123 15.192 153.699 15.0827 153.353 14.912C153.011 14.736 152.742 14.472 152.545 14.12C152.219 14.5093 151.803 14.8 151.297 14.992C150.79 15.1787 150.273 15.272 149.745 15.272C148.87 15.272 148.171 15.024 147.649 14.528C147.131 14.0267 146.873 13.384 146.873 12.6C146.873 11.6773 147.233 10.9653 147.953 10.464C148.678 9.96267 149.697 9.712 151.009 9.712H152.153V9.392C152.153 8.94933 152.009 8.62133 151.721 8.408C151.438 8.19467 151.022 8.088 150.473 8.088C150.201 8.088 149.851 8.128 149.425 8.208C148.998 8.28267 148.571 8.392 148.145 8.536L147.561 6.856C148.11 6.648 148.681 6.49067 149.273 6.384C149.87 6.27733 150.403 6.224 150.873 6.224C152.137 6.224 153.07 6.48267 153.673 7C154.281 7.512 154.585 8.25333 154.585 9.224V12.552ZM150.617 13.464C150.889 13.464 151.174 13.384 151.473 13.224C151.771 13.0587 151.998 12.8267 152.153 12.528V11.152H151.529C150.825 11.152 150.307 11.2613 149.977 11.48C149.646 11.6933 149.481 12.008 149.481 12.424C149.481 12.7493 149.579 13.0053 149.777 13.192C149.979 13.3733 150.259 13.464 150.617 13.464Z" fill="white"/>
</g>
<defs>
<clipPath id="clip0_550_1541">
<rect width="156" height="18" fill="white"/>
</clipPath>
</defs>
</svg>
